<?xml version="1.0" encoding="UTF-8"?><svg id="_レイヤー_1" xmlns="http://www.w3.org/2000/svg" xmlns:xlink="http://www.w3.org/1999/xlink" viewBox="0 0 960 960"><defs><style>.cls-1{fill:url(#linear-gradient-5);}.cls-2{fill:url(#linear-gradient-4);}.cls-3{fill:url(#linear-gradient-3);}.cls-4{fill:url(#linear-gradient-2);}.cls-5{fill:url(#linear-gradient);}.cls-6{fill:#414849;}</style><linearGradient id="linear-gradient" x1="309.95" y1="611.98" x2="379.65" y2="611.98" gradientUnits="userSpaceOnUse"><stop offset="0" stop-color="#0a1021"/><stop offset=".37" stop-color="#142131"/><stop offset="1" stop-color="#2c4755"/></linearGradient><linearGradient id="linear-gradient-2" x1="593.18" y1="546.14" x2="665.85" y2="546.14" xlink:href="#linear-gradient"/><linearGradient id="linear-gradient-3" x1="203.18" y1="739.51" x2="203.18" y2="483.95" gradientUnits="userSpaceOnUse"><stop offset="0" stop-color="#0a1021"/><stop offset="1" stop-color="#414849"/></linearGradient><linearGradient id="linear-gradient-4" x1="486.42" y1="739.51" x2="486.42" y2="352.22" gradientUnits="userSpaceOnUse"><stop offset="0" stop-color="#0a1021"/><stop offset=".28" stop-color="#1a212d"/><stop offset=".78" stop-color="#414849"/></linearGradient><linearGradient id="linear-gradient-5" x1="769.65" y1="739.51" x2="769.65" y2="220.49" gradientUnits="userSpaceOnUse"><stop offset="0" stop-color="#0a1021"/><stop offset=".15" stop-color="#0f1525"/><stop offset=".34" stop-color="#202631"/><stop offset=".56" stop-color="#3b4245"/><stop offset=".6" stop-color="#414849"/><stop offset=".68" stop-color="#444b4c"/><stop offset=".75" stop-color="#4f5657"/><stop offset=".83" stop-color="#616869"/><stop offset=".9" stop-color="#7b8182"/><stop offset=".96" stop-color="#9ca2a3"/><stop offset="1" stop-color="#b2b7b8"/></linearGradient></defs><polygon class="cls-6" points="662.88 324.04 662.88 439.5 593.18 357 593.18 356.45 379.65 455.77 379.65 576.54 309.95 488.68 309.95 488.18 96.42 587.49 96.42 743.74 309.95 743.74 309.95 654.77 379.65 743.74 379.65 743.72 379.65 743.74 593.18 743.74 593.18 654.77 662.88 740.11 662.88 743.74 876.42 743.74 876.42 224.73 662.88 324.04"/><polygon class="cls-5" points="379.65 739.51 309.95 650.53 309.95 484.45 379.65 573.42 379.65 739.51"/><polygon class="cls-4" points="665.85 739.51 593.18 650.53 593.18 352.77 665.85 438.78 665.85 739.51"/><polygon class="cls-3" points="96.42 583.26 96.42 739.51 309.95 739.51 309.95 483.95 96.42 583.26"/><polygon class="cls-2" points="379.65 451.53 379.65 739.51 593.18 739.51 593.18 352.22 379.65 451.53"/><polygon class="cls-1" points="662.88 319.81 662.88 739.51 876.42 739.51 876.42 220.49 662.88 319.81"/><rect class="cls-6" x="101.31" y="589.24" width="1.48" height="145.32"/><rect class="cls-6" x="304.76" y="493.87" width="1.48" height="240.69"/><rect class="cls-6" x="383.85" y="457.26" width="1.48" height="277.3"/><rect class="cls-6" x="586.51" y="362.85" width="1.48" height="371.71"/><rect class="cls-6" x="669.06" y="325.29" width="1.48" height="409.28"/><rect class="cls-6" x="869.84" y="231.86" width="1.48" height="502.7"/></svg>